<?xml version="1.0" encoding="UTF-8" standalone="no"?>
<svg width="193px" height="202px" viewBox="0 0 193 202" version="1.1" xmlns="http://www.w3.org/2000/svg" xmlns:xlink="http://www.w3.org/1999/xlink" xmlns:sketch="http://www.bohemiancoding.com/sketch/ns">
    <!-- Generator: Sketch 3.3.2 (12043) - http://www.bohemiancoding.com/sketch -->
    <title>Artboard 1</title>
    <desc>Created with Sketch.</desc>
    <defs></defs>
    <g id="Page-1" stroke="none" stroke-width="1" fill="none" fill-rule="evenodd" sketch:type="MSPage">
        <g id="Artboard-1" sketch:type="MSArtboardGroup">
            <g id="Line-+-Path-3-+-Path-3-Copy-2-+-Path-3-Copy-3-+-Path-3-Copy-4" sketch:type="MSLayerGroup" transform="translate(12.000000, 14.000000)" stroke="#40454F" stroke-width="3">
                <path d="M1.5,1.5 L170.5,170.5" id="Line" stroke-linecap="square" sketch:type="MSShapeGroup"></path>
                <path d="M11.5,28.5 L0,0.5 L28.5,11" id="Path-3" sketch:type="MSShapeGroup"></path>
                <g id="Path-3-Copy-2-+-Path-3-Copy-3-+-Path-3-Copy-4" transform="translate(127.000000, 127.000000)" sketch:type="MSShapeGroup">
                    <path d="M6.5,21 L0.25,0.5 L22,6" id="Path-3-Copy-2"></path>
                    <path d="M20.5,35 L14.25,14.5 L36,20" id="Path-3-Copy-3"></path>
                    <path d="M33.5,49 L27.25,28.5 L49,34" id="Path-3-Copy-4"></path>
                </g>
            </g>
            <g id="Line-Copy-+-Path-3-Copy-2-+-Path-3-Copy-3-+-Path-3-Copy-4-Copy-+-Path-3-Copy" sketch:type="MSLayerGroup" transform="translate(9.000000, 14.000000)" stroke="#40454F" stroke-width="3">
                <path d="M4.5,1.5 L173.5,170.5" id="Line-Copy" stroke-linecap="square" sketch:type="MSShapeGroup" transform="translate(89.000000, 86.000000) scale(-1, 1) translate(-89.000000, -86.000000) "></path>
                <g id="Path-3-Copy-2-+-Path-3-Copy-3-+-Path-3-Copy-4-Copy" transform="translate(24.500000, 150.500000) scale(-1, 1) translate(-24.500000, -150.500000) translate(0.000000, 126.000000)" sketch:type="MSShapeGroup">
                    <path d="M6.5,21 L0.25,0.5 L22,6" id="Path-3-Copy-2"></path>
                    <path d="M20.5,35 L14.25,14.5 L36,20" id="Path-3-Copy-3"></path>
                    <path d="M33.5,49 L27.25,28.5 L49,34" id="Path-3-Copy-4"></path>
                </g>
                <path d="M158,28.5 L146.5,0.5 L175,11" id="Path-3-Copy" sketch:type="MSShapeGroup" transform="translate(160.750000, 14.500000) scale(-1, 1) translate(-160.750000, -14.500000) "></path>
            </g>
            <text id="W3" sketch:type="MSTextLayer" font-family="Marmelad" font-size="47" font-weight="normal" fill="#3F454F">
                <tspan x="65" y="60">W3</tspan>
            </text>
            <text id="GURU" sketch:type="MSTextLayer" font-family="Marmelad" font-size="24" font-weight="normal" line-spacing="28" fill="#3F454F">
                <tspan x="66" y="164">GURU</tspan>
            </text>
            <text id="&lt;" sketch:type="MSTextLayer" transform="translate(44.299805, 97.964844) rotate(-180.000000) translate(-44.299805, -97.964844) " font-family="Beirut" font-size="67" font-weight="normal" fill="#3F454F">
                <tspan x="22.5996094" y="114.464844">&lt;</tspan>
            </text>
            <text id="&lt;-copy" sketch:type="MSTextLayer" font-family="Beirut" font-size="67" font-weight="normal" fill="#3F454F">
                <tspan x="125" y="114.464844">&lt;</tspan>
            </text>
        </g>
    </g>
</svg>