<?xml version="1.0" encoding="UTF-8" standalone="no"?>
<svg viewBox="0 0 326 326" version="1.1" xmlns="http://www.w3.org/2000/svg" xmlns:xlink="http://www.w3.org/1999/xlink" xmlns:sketch="http://www.bohemiancoding.com/sketch/ns">
    <!-- Generator: Sketch 3.0.4 (8053) - http://www.bohemiancoding.com/sketch -->
    <title>Oval 1 + Path 1 + W3 2</title>
    <desc>Created with Sketch.</desc>
    <defs></defs>
    <g id="Page-1" stroke="none" stroke-width="1" fill="none" fill-rule="evenodd" sketch:type="MSPage">
        <g id="Desktop-HD" sketch:type="MSArtboardGroup" transform="translate(-559.000000, -351.000000)">
            <g id="Oval-1-+-Path-1-+-W3-2" sketch:type="MSLayerGroup" transform="translate(565.000000, 357.000000)">
                <circle id="Oval-1" stroke="#FFFFFF" stroke-width="12" sketch:type="MSShapeGroup" cx="157" cy="157" r="157"></circle>
                <path d="M233.338591,128.979967 C244.901279,128.979967 250.010374,131.668965 250.010374,139.063707 C250.010374,146.45845 244.901279,149.147447 233.338591,149.147447 L223.658201,149.147447 C220.431404,149.147447 217.742407,152.105344 217.742407,155.332141 L217.742407,160.710136 C217.742407,164.205832 220.565854,166.894829 223.9271,166.894829 L235.758688,166.894829 C246.111328,166.894829 251.354873,169.314927 251.354873,176.978569 C251.354873,184.642211 246.111328,187.062309 235.758688,187.062309 L226.347198,187.062309 C218.280206,187.062309 212.498862,184.238862 210.213214,179.398667 C207.658667,173.886222 204.56632,172.138374 200.801724,172.138374 L193.003631,172.138374 C191.255783,172.138374 186.281138,173.348423 186.281138,179.398667 C186.281138,195.80155 205.776369,205.61639 224.06155,205.61639 L238.044336,205.61639 C261.841962,205.61639 276.093648,198.087198 276.093648,176.978569 C276.093648,168.911577 273.270201,162.726883 265.741008,158.021138 C271.925702,153.315393 274.749149,146.324 274.749149,139.198157 C274.749149,116.87948 257.136217,110.425886 235.220889,110.425886 L226.212748,110.425886 C207.927566,110.425886 188.432336,120.240726 188.432336,135.97136 C188.432336,142.021604 193.406981,143.231653 195.154829,143.231653 L202.952921,143.231653 C206.717518,143.231653 209.675415,141.483805 211.826612,137.046959 C214.784509,131.131165 220.431404,128.979967 228.498396,128.979967 L233.338591,128.979967 Z" id="Path-1" fill="#FFFFFF" sketch:type="MSShapeGroup"></path>
                <path d="M85.6689693,143.525071 L93.7796314,117.148379 C94.8552304,113.652683 97.4097778,110.963686 101.577724,110.963686 L113.678211,110.963686 C117.846157,110.963686 120.400705,113.652683 121.476304,117.148379 L128.343007,139.47959 L85.6689693,143.525071 Z M69.7319044,145.035897 L60.436065,117.148379 C59.2260163,113.652683 56.1336694,110.963686 52.6379729,110.963686 L38.2518374,110.963686 C35.2939404,110.963686 32.8738428,113.518233 33.9494417,116.47613 L45.011683,147.379364 L69.7319044,145.035897 Z M56.885119,180.548733 L63.2595122,198.356098 C64.7384607,202.524043 67.9652575,205.078591 72.6710027,205.078591 L82.2169431,205.078591 C86.9226883,205.078591 90.283935,202.524043 91.6284336,198.356098 L98.3857235,177.005333 L56.885119,180.548733 Z M116.383858,175.468618 L123.627501,198.356098 C124.972,202.524043 128.333247,205.078591 133.038992,205.078591 L142.584932,205.078591 C147.290678,205.078591 150.517474,202.524043 151.996423,198.356098 L161.570378,171.610507 L116.383858,175.468618 Z M174.643277,135.090345 L181.306493,116.47613 C182.382092,113.518233 179.961995,110.963686 177.004098,110.963686 L162.617962,110.963686 C159.122266,110.963686 156.029919,113.652683 154.81987,117.148379 L147.997203,137.616381 L174.643277,135.090345 Z" id="W3-2" fill="#FFFFFF" sketch:type="MSShapeGroup"></path>
                <path d="M67.9357402,157.266427 C67.9357402,162.310849 71.2016806,165.350437 75.9227429,165.350437 C77.9599136,165.350437 79.3826995,165.027077 80.6438052,164.703717 L80.6438052,165.447446 C80.6438052,167.969657 79.5767158,168.745722 77.0868404,168.745722 C75.4377022,168.745722 74.2412686,168.35769 73.6915559,167.678633 C73.2711873,167.161256 72.6891386,166.837895 71.8807375,166.837895 L69.5202063,166.837895 C68.9704936,166.837895 68.550125,167.258264 68.550125,167.807977 C68.550125,171.170925 71.9130735,172.335023 77.474873,172.335023 C82.4546236,172.335023 86.1085965,170.39486 86.1085965,165.447446 L86.1085965,150.831554 C84.4271223,149.861473 80.7084773,149.053072 77.6365532,149.053072 C71.3310247,149.053072 67.9357402,152.09266 67.9357402,157.266427 Z M73.5622117,157.266427 C73.5622117,154.453191 74.6293012,152.868725 77.3131928,152.868725 C78.6389705,152.868725 79.9000762,153.030405 80.6438052,153.224421 L80.6438052,161.049744 C79.3826995,161.373104 78.1215938,161.534784 77.2161846,161.534784 C74.6293012,161.534784 73.5622117,159.950318 73.5622117,157.266427 Z M95.4537131,150.346513 C95.4537131,149.796801 95.0333445,149.376432 94.4836318,149.376432 L90.959003,149.376432 C90.4092903,149.376432 89.9889217,149.796801 89.9889217,150.346513 L89.9889217,159.400606 C89.9889217,164.768389 92.9638377,166.999576 97.1675234,166.999576 C99.5927266,166.999576 101.209529,165.964822 102.696987,164.703717 L102.696987,165.706134 C102.696987,166.255847 103.117355,166.676215 103.667068,166.676215 L107.191697,166.676215 C107.74141,166.676215 108.161778,166.255847 108.161778,165.706134 L108.161778,150.346513 C108.161778,149.796801 107.74141,149.376432 107.191697,149.376432 L103.667068,149.376432 C103.117355,149.376432 102.696987,149.796801 102.696987,150.346513 L102.696987,160.9204 C101.532889,162.084497 100.045431,163.183923 98.4609651,163.183923 C96.6824827,163.183923 95.4537131,162.084497 95.4537131,159.400606 L95.4537131,150.346513 Z M125.493897,150.023153 C125.493897,149.47344 125.073529,149.053072 124.523816,149.053072 C120.966851,149.053072 119.317713,150.023153 117.506895,151.348931 L117.506895,150.346513 C117.506895,149.796801 117.086526,149.376432 116.536813,149.376432 L113.012185,149.376432 C112.462472,149.376432 112.042103,149.796801 112.042103,150.346513 L112.042103,165.706134 C112.042103,166.255847 112.462472,166.676215 113.012185,166.676215 L116.536813,166.676215 C117.086526,166.676215 117.506895,166.255847 117.506895,165.706134 L117.506895,155.617288 C118.670992,154.226839 119.964434,153.289093 121.581236,153.289093 C122.421973,153.289093 123.26271,153.386101 124.006439,153.386101 L124.523816,153.386101 C125.073529,153.386101 125.493897,152.965733 125.493897,152.41602 L125.493897,150.023153 Z M133.222212,150.346513 C133.222212,149.796801 132.801843,149.376432 132.25213,149.376432 L128.727502,149.376432 C128.177789,149.376432 127.75742,149.796801 127.75742,150.346513 L127.75742,159.400606 C127.75742,164.768389 130.732336,166.999576 134.936022,166.999576 C137.361225,166.999576 138.978027,165.964822 140.465485,164.703717 L140.465485,165.706134 C140.465485,166.255847 140.885854,166.676215 141.435567,166.676215 L144.960195,166.676215 C145.509908,166.676215 145.930277,166.255847 145.930277,165.706134 L145.930277,150.346513 C145.930277,149.796801 145.509908,149.376432 144.960195,149.376432 L141.435567,149.376432 C140.885854,149.376432 140.465485,149.796801 140.465485,150.346513 L140.465485,160.9204 C139.301388,162.084497 137.81393,163.183923 136.229464,163.183923 C134.450981,163.183923 133.222212,162.084497 133.222212,159.400606 L133.222212,150.346513 Z" id="guru" fill="#FFFFFF" sketch:type="MSShapeGroup" transform="translate(107.903090, 160.694047) rotate(-5.000000) translate(-107.903090, -160.694047) "></path>
            </g>
        </g>
    </g>
</svg>