<?xml version="1.0" encoding="UTF-8" standalone="no"?>
<svg width="242px" height="96px" viewBox="0 0 242 96" version="1.1" xmlns="http://www.w3.org/2000/svg" xmlns:xlink="http://www.w3.org/1999/xlink" xmlns:sketch="http://www.bohemiancoding.com/sketch/ns">
    <!-- Generator: Sketch 3.0.4 (8053) - http://www.bohemiancoding.com/sketch -->
    <title>Path 1 + W3 2 + guru</title>
    <desc>Created with Sketch.</desc>
    <defs></defs>
    <g id="w3" stroke="none" stroke-width="1" fill="none" fill-rule="evenodd" sketch:type="MSPage">
        <g id="Path-1-+-W3-2-+-guru" sketch:type="MSLayerGroup" transform="translate(0.000000, 1.000000)" fill=" rgb(236,105,111)">
            <path d="M198.980867,18.3566612 C210.543556,18.3566612 215.65265,21.0456585 215.65265,28.4404011 C215.65265,35.8351436 210.543556,38.5241409 198.980867,38.5241409 L189.300477,38.5241409 C186.07368,38.5241409 183.384683,41.4820379 183.384683,44.7088347 L183.384683,50.0868293 C183.384683,53.5825257 186.20813,56.271523 189.569377,56.271523 L201.400965,56.271523 C211.753604,56.271523 216.997149,58.6916206 216.997149,66.3552629 C216.997149,74.0189051 211.753604,76.4390027 201.400965,76.4390027 L191.989474,76.4390027 C183.922482,76.4390027 178.141138,73.6155556 175.855491,68.7753604 C173.300943,63.262916 170.208596,61.5150678 166.444,61.5150678 L158.645908,61.5150678 C156.89806,61.5150678 151.923415,62.7251165 151.923415,68.7753604 C151.923415,85.1782439 171.418645,94.993084 189.703827,94.993084 L203.686612,94.993084 C227.484238,94.993084 241.735924,87.4638916 241.735924,66.3552629 C241.735924,58.288271 238.912477,52.1035772 231.383285,47.397832 C237.567978,42.6920867 240.391425,35.7006938 240.391425,28.5748509 C240.391425,6.25617344 222.778493,-0.197420054 200.863165,-0.197420054 L191.855024,-0.197420054 C173.569843,-0.197420054 154.074612,9.61742005 154.074612,25.3480542 C154.074612,31.3982981 159.049257,32.6083469 160.797106,32.6083469 L168.595198,32.6083469 C172.359794,32.6083469 175.317691,30.8604986 177.468889,26.4236531 C180.426786,20.5078591 186.07368,18.3566612 194.140672,18.3566612 L198.980867,18.3566612 Z" id="Path-1" sketch:type="MSShapeGroup"></path>
            <path d="M52.0565032,32.4762901 L60.1671653,6.09959892 C61.2427642,2.60390244 63.7973117,-0.0850948509 67.9652575,-0.0850948509 L80.0657453,-0.0850948509 C84.2336911,-0.0850948509 86.7882385,2.60390244 87.8638374,6.09959892 L94.7305405,28.4308099 L52.0565032,32.4762901 Z M36.1194383,33.9871169 L26.8235989,6.09959892 C25.6135501,2.60390244 22.5212033,-0.0850948509 19.0255068,-0.0850948509 L4.63937127,-0.0850948509 C1.68147425,-0.0850948509 -0.738623306,2.46945257 0.33697561,5.42734959 L11.3992169,36.3305832 L36.1194383,33.9871169 Z M23.2726528,69.4999525 L29.6470461,87.3073171 C31.1259946,91.4752629 34.3527913,94.0298103 39.0585366,94.0298103 L48.604477,94.0298103 C53.3102222,94.0298103 56.6714688,91.4752629 58.0159675,87.3073171 L64.7732574,65.9565522 L23.2726528,69.4999525 Z M82.7713914,64.4198375 L90.0150352,87.3073171 C91.3595339,91.4752629 94.7207805,94.0298103 99.4265257,94.0298103 L108.972466,94.0298103 C113.678211,94.0298103 116.905008,91.4752629 118.383957,87.3073171 L127.957912,60.5617268 L82.7713914,64.4198375 Z M141.030811,24.0415643 L147.694027,5.42734959 C148.769626,2.46945257 146.349528,-0.0850948509 143.391631,-0.0850948509 L129.005496,-0.0850948509 C125.509799,-0.0850948509 122.417453,2.60390244 121.207404,6.09959892 L114.384737,26.5676006 L141.030811,24.0415643 Z" id="W3-2" sketch:type="MSShapeGroup"></path>
            <path d="M34,46.213355 C34,51.2577778 37.2659404,54.2973659 41.9870027,54.2973659 C44.0241734,54.2973659 45.4469593,53.9740054 46.708065,53.650645 L46.708065,54.394374 C46.708065,56.9165854 45.6409756,57.6926504 43.1511003,57.6926504 C41.5019621,57.6926504 40.3055285,57.3046179 39.7558157,56.625561 C39.3354472,56.1081843 38.7533984,55.7848238 37.9449973,55.7848238 L35.5844661,55.7848238 C35.0347534,55.7848238 34.6143848,56.2051924 34.6143848,56.7549051 C34.6143848,60.1178537 37.9773333,61.2819512 43.5391328,61.2819512 C48.5188835,61.2819512 52.1728564,59.3417886 52.1728564,54.394374 L52.1728564,39.7784824 C50.4913821,38.8084011 46.7727371,38 43.700813,38 C37.3952846,38 34,41.0395881 34,46.213355 Z M39.6264715,46.213355 C39.6264715,43.4001192 40.693561,41.8156531 43.3774526,41.8156531 C44.7032304,41.8156531 45.964336,41.9773333 46.708065,42.1713496 L46.708065,49.9966721 C45.4469593,50.3200325 44.1858537,50.4817127 43.2804444,50.4817127 C40.693561,50.4817127 39.6264715,48.8972466 39.6264715,46.213355 Z M61.5179729,39.2934417 C61.5179729,38.743729 61.0976043,38.3233604 60.5478916,38.3233604 L57.0232629,38.3233604 C56.4735501,38.3233604 56.0531816,38.743729 56.0531816,39.2934417 L56.0531816,48.3475339 C56.0531816,53.7153171 59.0280976,55.9465041 63.2317832,55.9465041 C65.6569864,55.9465041 67.2737886,54.9117507 68.7612466,53.650645 L68.7612466,54.6530623 C68.7612466,55.2027751 69.1816152,55.6231436 69.7313279,55.6231436 L73.2559566,55.6231436 C73.8056694,55.6231436 74.2260379,55.2027751 74.2260379,54.6530623 L74.2260379,39.2934417 C74.2260379,38.743729 73.8056694,38.3233604 73.2559566,38.3233604 L69.7313279,38.3233604 C69.1816152,38.3233604 68.7612466,38.743729 68.7612466,39.2934417 L68.7612466,49.8673279 C67.5971491,51.0314255 66.1096911,52.1308509 64.5252249,52.1308509 C62.7467425,52.1308509 61.5179729,51.0314255 61.5179729,48.3475339 L61.5179729,39.2934417 Z M91.5581572,38.9700813 C91.5581572,38.4203686 91.1377886,38 90.5880759,38 C87.0311111,38 85.3819729,38.9700813 83.5711545,40.2958591 L83.5711545,39.2934417 C83.5711545,38.743729 83.1507859,38.3233604 82.6010732,38.3233604 L79.0764444,38.3233604 C78.5267317,38.3233604 78.1063631,38.743729 78.1063631,39.2934417 L78.1063631,54.6530623 C78.1063631,55.2027751 78.5267317,55.6231436 79.0764444,55.6231436 L82.6010732,55.6231436 C83.1507859,55.6231436 83.5711545,55.2027751 83.5711545,54.6530623 L83.5711545,44.5642168 C84.735252,43.1737669 86.0286938,42.2360217 87.6454959,42.2360217 C88.4862331,42.2360217 89.3269702,42.3330298 90.0706992,42.3330298 L90.5880759,42.3330298 C91.1377886,42.3330298 91.5581572,41.9126612 91.5581572,41.3629485 L91.5581572,38.9700813 Z M99.2864715,39.2934417 C99.2864715,38.743729 98.866103,38.3233604 98.3163902,38.3233604 L94.7917615,38.3233604 C94.2420488,38.3233604 93.8216802,38.743729 93.8216802,39.2934417 L93.8216802,48.3475339 C93.8216802,53.7153171 96.7965962,55.9465041 101.000282,55.9465041 C103.425485,55.9465041 105.042287,54.9117507 106.529745,53.650645 L106.529745,54.6530623 C106.529745,55.2027751 106.950114,55.6231436 107.499827,55.6231436 L111.024455,55.6231436 C111.574168,55.6231436 111.994537,55.2027751 111.994537,54.6530623 L111.994537,39.2934417 C111.994537,38.743729 111.574168,38.3233604 111.024455,38.3233604 L107.499827,38.3233604 C106.950114,38.3233604 106.529745,38.743729 106.529745,39.2934417 L106.529745,49.8673279 C105.365648,51.0314255 103.87819,52.1308509 102.293724,52.1308509 C100.515241,52.1308509 99.2864715,51.0314255 99.2864715,48.3475339 L99.2864715,39.2934417 Z" id="guru" sketch:type="MSShapeGroup" fill="rgb(84,131,145)" transform="translate(73.967350, 49.640976) rotate(-5.000000) translate(-73.967350, -49.640976) "></path>
        </g>
    </g>
</svg>
